# xmcd CD database file
#
# Track frame offsets:
#	150
#	19387
#	37951
#	53596
#	72162
#	92861
#	112965
#	130367
#	145817
#	166245
#
# Disc length: 2484 seconds
#
# Revision: 0
# Processed by: cddbd v1.5.1PL0 Copyright (c) Steve Scherf et al.
# Submitted via: CDex 1.50
#
DISCID=8309b20a
DTITLE=Johnny Ventura - Sin Desperdicio
DYEAR=2003
DGENRE=Merengue
TTITLE0=El Amoi No Mata
TTITLE1=Alla Se Quedo
TTITLE2=Cara Pinta
TTITLE3=Gata Salvaje
TTITLE4=El Mangu
TTITLE5=Aprendiz
TTITLE6=Quizas No Sabes
TTITLE7=Quiero Te
TTITLE8=Mi Sueño Amado
TTITLE9=Si Eso Es Tuyo
EXTD=YEAR: 2003
EXTT0=
EXTT1=
EXTT2=
EXTT3=
EXTT4=
EXTT5=
EXTT6=
EXTT7=
EXTT8=
EXTT9=
PLAYORDER=
